Movie Info
Plot: As Johnny Blaze hides out in Eastern Europe,
he is called upon to stop the devil, who is trying to take human form. 
http://www.imdb.com/title/tt1071875/
IMDB Rating: 5.0



General Info
Size: 1.62GB
Format: AVI
Runtime: 01:35:27



Sources
Video - Ghost Rider Spirit Of Vengeance 2012 KORSUB HDRip H264 AAC-KTH
Audio - Ghost Rider Spirit Of Vengeance 2012 KORSUB HDRip H264 AAC-KTH
(Thanks)



Video Info
ID : 0
Format : MPEG-4 Visual
Format profile : Advanced Simple@L5
Format settings, BVOP : 2
Format settings, QPel : No
Format settings, GMC : No warppoints
Format settings, Matrix : Default (H.263)
Muxing mode : Packed bitstream
Codec ID : XVID
Codec ID/Hint : XviD
Duration : 1h 35mn
Bit rate : 2 267 Kbps
Width : 720 pixels
Height : 304 pixels
Display aspect ratio : 2.35:1
Frame rate : 24.000 fps
Color space : YUV
Chroma subsampling : 4:2:0
Bit depth : 8 bits
Scan type : Progressive
Compression mode : Lossy
Bits/(Pixel*Frame) : 0.431
Stream size : 1.51 GiB (93%)
Writing library : XviD 64


Audio Info
ID : 1
Format : MPEG Audio
Format version : Version 1
Format profile : Layer 3
Mode : Joint stereo
Mode extension : MS Stereo
Codec ID : 55
Codec ID/Hint : MP3
Duration : 1h 35mn
Bit rate mode : Constant
Bit rate : 160 Kbps
Channel(s) : 2 channels
Sampling rate : 44.1 KHz
Compression mode : Lossy
Delay relative to video : 6ms
Stream size : 109 MiB (7%)
Alignment : Split accross interleaves
Interleave, duration : 42 ms (1.00 video frame)
Interleave, preload duration : 500 ms
Writing library : LAME3.98.4



Encoders Notes
I cropped the black borders (not the actual video lol)
sharpen, re-sized, de-noised
changed the: contrast, brightness, saturation, gamma & colors.
Sample included, enjoy..
 
http://imgr.us/images/lkjcdugfzrwo6urunwh.png 
http://imgr.us/images/8260fo0hivwyexvbh491.png 
http://imgr.us/images/pbga71ubxyuioxirdq.png 
http://imgr.us/images/4j2b61mmzvaodj1vwu.png 
http://imgr.us/images/brz40pz2v6f8zv8ej7d4.png